<?xml version="1.0" encoding="UTF-8" standalone="no"?>
<svg
   xmlns:dc="http://purl.org/dc/elements/1.1/"
   xmlns:cc="http://creativecommons.org/ns#"
   xmlns:rdf="http://www.w3.org/1999/02/22-rdf-syntax-ns#"
   xmlns:svg="http://www.w3.org/2000/svg"
   xmlns="http://www.w3.org/2000/svg"
   viewBox="0 0 1821.3333 1066.6667"
   height="1066.6667"
   width="1821.3333"
   xml:space="preserve"
   id="svg2"
   version="1.1"><metadata
     id="metadata8"><rdf:RDF><cc:Work
         rdf:about=""><dc:format>image/svg+xml</dc:format><dc:type
           rdf:resource="http://purl.org/dc/dcmitype/StillImage" /></cc:Work></rdf:RDF></metadata><defs
     id="defs6"><clipPath
       id="clipPath18"
       clipPathUnits="userSpaceOnUse"><path
         id="path16"
         d="M 0,800 H 1366 V 0 H 0 Z" /></clipPath></defs><g
     transform="matrix(1.3333333,0,0,-1.3333333,0,1066.6667)"
     id="g10"><g
       id="g12"><g
         clip-path="url(#clipPath18)"
         id="g14"><g
           transform="translate(1134.3857,282.8301)"
           id="g20"><path
             id="path22"
             style="fill:#000000;fill-opacity:1;fill-rule:nonzero;stroke:none"
             d="m 0,0 c -43.268,0 -78.468,-35.2 -78.468,-78.468 0,-43.267 35.2,-78.468 78.468,-78.468 43.268,0 78.469,35.201 78.469,78.468 C 78.469,-35.2 43.268,0 0,0 m 0,-161.936 c -46.024,0 -83.468,37.444 -83.468,83.468 C -83.468,-32.443 -46.024,5 0,5 46.024,5 83.469,-32.443 83.469,-78.468 83.469,-124.492 46.024,-161.936 0,-161.936" /></g><g
           transform="translate(1134.3857,251.3428)"
           id="g24"><path
             id="path26"
             style="fill:#000000;fill-opacity:1;fill-rule:nonzero;stroke:none"
             d="m 0,0 c -25.905,0 -46.98,-21.075 -46.98,-46.98 0,-25.906 21.075,-46.981 46.98,-46.981 25.905,0 46.98,21.075 46.98,46.981 C 46.98,-21.075 25.905,0 0,0 m 0,-98.961 c -28.662,0 -51.98,23.318 -51.98,51.981 C -51.98,-18.318 -28.662,5 0,5 28.662,5 51.98,-18.318 51.98,-46.98 51.98,-75.643 28.662,-98.961 0,-98.961" /></g><g
           transform="translate(1134.3857,246.1572)"
           id="g28"><path
             id="path30"
             style="fill:#000000;fill-opacity:1;fill-rule:nonzero;stroke:none"
             d="m 0,0 c -23.046,0 -41.795,-18.749 -41.795,-41.795 0,-23.046 18.749,-41.796 41.795,-41.796 23.046,0 41.796,18.75 41.796,41.796 C 41.796,-18.749 23.046,0 0,0 m 0,-86.591 c -24.7,0 -44.795,20.096 -44.795,44.796 C -44.795,-17.095 -24.7,3 0,3 24.7,3 44.796,-17.095 44.796,-41.795 44.796,-66.495 24.7,-86.591 0,-86.591" /></g><g
           transform="translate(1134.3857,211.999)"
           id="g32"><path
             id="path34"
             style="fill:#000000;fill-opacity:1;fill-rule:nonzero;stroke:none"
             d="m 0,0 c -4.211,0 -7.637,-3.426 -7.637,-7.637 0,-4.212 3.426,-7.637 7.637,-7.637 4.212,0 7.638,3.425 7.638,7.637 C 7.638,-3.426 4.212,0 0,0 m 0,-18.274 c -5.865,0 -10.637,4.772 -10.637,10.637 C -10.637,-1.771 -5.865,3 0,3 5.865,3 10.638,-1.771 10.638,-7.637 10.638,-13.502 5.865,-18.274 0,-18.274" /></g><g
           transform="translate(1146.0479,190.7988)"
           id="g36"><path
             id="path38"
             style="fill:#000000;fill-opacity:1;fill-rule:nonzero;stroke:none"
             d="m 0,0 z m 0.104,0.186 6.357,-8.504 c 0.571,-0.764 1.316,-1.187 2.214,-1.256 1.196,-0.094 2.541,0.468 3.597,1.5 3.164,3.093 5.553,7.442 6.913,12.58 0.349,1.322 0.155,2.691 -0.52,3.66 -0.541,0.776 -1.345,1.237 -2.324,1.331 L 5.896,10.501 Z m 8.838,-12.771 c -0.167,0 -0.333,0.007 -0.499,0.02 -1.747,0.135 -3.304,1.005 -4.384,2.45 l -6.485,8.675 c -0.632,0.845 -0.707,1.986 -0.191,2.907 l 10e-4,10e-4 6.001,10.688 c 0.518,0.922 1.544,1.446 2.583,1.352 l 10.66,-1.025 c 1.856,-0.178 3.454,-1.102 4.499,-2.602 1.189,-1.708 1.538,-3.946 0.958,-6.143 -1.52,-5.741 -4.115,-10.436 -7.715,-13.957 -1.556,-1.52 -3.509,-2.366 -5.428,-2.366" /></g><g
           transform="translate(1128.5088,187.707)"
           id="g40"><path
             id="path42"
             style="fill:#000000;fill-opacity:1;fill-rule:nonzero;stroke:none"
             d="m 0,0 -4.368,-9.678 c -0.393,-0.869 -0.403,-1.725 -0.028,-2.545 0.497,-1.091 1.638,-1.998 3.052,-2.423 4.299,-1.29 9.127,-1.28 14.354,0.035 1.327,0.333 2.43,1.165 2.953,2.224 0.291,0.592 0.535,1.537 0.041,2.678 L 11.83,-0.08 Z m 5.42,-18.605 c -2.666,0 -5.214,0.362 -7.627,1.086 -2.264,0.681 -4.057,2.158 -4.92,4.052 -0.727,1.595 -0.718,3.379 0.024,5.024 l 4.457,9.872 c 0.434,0.958 1.388,1.572 2.435,1.572 h 0.018 L 12.064,2.918 C 13.121,2.911 14.075,2.28 14.497,1.311 l 4.259,-9.827 c 0.742,-1.711 0.706,-3.556 -0.103,-5.197 -0.919,-1.867 -2.71,-3.255 -4.913,-3.808 -2.878,-0.723 -5.657,-1.084 -8.32,-1.084" /></g><g
           transform="translate(1116.2383,201.0684)"
           id="g44"><path
             id="path46"
             style="fill:#000000;fill-opacity:1;fill-rule:nonzero;stroke:none"
             d="m 0,0 -10.564,-1.056 c -0.95,-0.094 -1.696,-0.514 -2.219,-1.248 -0.697,-0.976 -0.91,-2.418 -0.571,-3.855 1.015,-4.306 3.507,-8.598 7.206,-12.413 0.952,-0.983 2.228,-1.518 3.402,-1.446 0.945,0.063 1.755,0.514 2.341,1.304 l 6.251,8.429 z m -2.98,-23.025 c -1.933,0 -3.852,0.847 -5.323,2.365 -4.133,4.264 -6.814,8.91 -7.971,13.811 -0.543,2.301 -0.161,4.593 1.049,6.288 1.018,1.427 2.567,2.311 4.363,2.49 L -0.086,3.006 C 0.97,3.112 1.98,2.585 2.502,1.668 L 8.56,-8.989 c 0.522,-0.918 0.453,-2.061 -0.177,-2.91 l -6.378,-8.602 c -1.112,-1.499 -2.73,-2.39 -4.554,-2.51 -0.143,-0.01 -0.288,-0.014 -0.431,-0.014" /></g><g
           transform="translate(1113.4453,228.4326)"
           id="g48"><path
             id="path50"
             style="fill:#000000;fill-opacity:1;fill-rule:nonzero;stroke:none"
             d="m 0,0 c -1.109,0 -2.32,-0.526 -3.3,-1.448 -3.221,-3.034 -5.693,-7.338 -7.147,-12.447 -0.375,-1.317 -0.206,-2.689 0.45,-3.671 0.526,-0.787 1.321,-1.262 2.298,-1.374 l 10.426,-1.2 5.984,10.204 -6.196,8.624 C 1.958,-0.538 1.221,-0.102 0.325,-0.016 0.218,-0.005 0.109,0 0,0 m 2.902,-23.162 c -0.101,0 -0.202,0.006 -0.304,0.017 l -10.64,1.224 c -1.853,0.213 -3.433,1.167 -4.449,2.687 -1.156,1.73 -1.463,3.975 -0.841,6.161 1.625,5.709 4.309,10.355 7.976,13.808 1.721,1.621 3.891,2.444 5.969,2.236 C 2.357,2.803 3.897,1.903 4.95,0.437 l 6.321,-8.795 c 0.617,-0.857 0.67,-1.998 0.136,-2.91 L 5.206,-21.842 c -0.481,-0.823 -1.363,-1.32 -2.304,-1.32" /></g><g
           transform="translate(1128.4023,222.3193)"
           id="g52"><path
             id="path54"
             style="fill:#000000;fill-opacity:1;fill-rule:nonzero;stroke:none"
             d="m 0,0 11.829,-0.08 4.369,9.677 c 0.393,0.869 0.403,1.725 0.029,2.546 -0.498,1.091 -1.639,1.998 -3.054,2.422 -4.237,1.274 -9.2,1.261 -14.353,-0.034 -1.327,-0.333 -2.431,-1.165 -2.953,-2.224 -0.419,-0.85 -0.432,-1.776 -0.042,-2.679 z m 12.041,-3.081 h -0.018 l -12.257,0.083 c -1.058,0.007 -2.013,0.638 -2.433,1.608 l -4.26,9.825 c -0.742,1.711 -0.705,3.558 0.103,5.198 0.92,1.866 2.711,3.255 4.913,3.808 5.679,1.426 11.191,1.425 15.947,-0.003 2.264,-0.68 4.058,-2.157 4.921,-4.052 0.727,-1.595 0.718,-3.379 -0.024,-5.024 l -4.457,-9.871 c -0.432,-0.957 -1.387,-1.572 -2.435,-1.572" /></g><g
           transform="translate(1146.2354,218.7422)"
           id="g56"><path
             id="path58"
             style="fill:#000000;fill-opacity:1;fill-rule:nonzero;stroke:none"
             d="m 0,0 5.846,-10.286 10.563,1.056 c 0.95,0.094 1.696,0.514 2.22,1.248 0.697,0.976 0.91,2.418 0.571,3.854 C 18.185,0.177 15.692,4.47 11.994,8.286 11.042,9.269 9.764,9.814 8.592,9.731 7.646,9.669 6.837,9.218 6.251,8.428 Z m 5.666,-13.306 c -0.954,0 -1.845,0.512 -2.322,1.352 l -6.058,10.657 c -0.522,0.918 -0.454,2.061 0.176,2.91 l 6.379,8.602 c 1.112,1.499 2.729,2.389 4.554,2.51 2.076,0.141 4.173,-0.721 5.753,-2.351 4.134,-4.265 6.816,-8.912 7.972,-13.812 0.543,-2.301 0.16,-4.592 -1.049,-6.287 -1.018,-1.426 -2.568,-2.311 -4.364,-2.49 L 5.932,-13.292 c -0.089,-0.009 -0.178,-0.014 -0.266,-0.014" /></g><g
           transform="translate(580.6836,282.8301)"
           id="g60"><path
             id="path62"
             style="fill:#000000;fill-opacity:1;fill-rule:nonzero;stroke:none"
             d="m 0,0 c -43.267,0 -78.468,-35.2 -78.468,-78.468 0,-43.267 35.201,-78.468 78.468,-78.468 43.267,0 78.468,35.201 78.468,78.468 C 78.468,-35.2 43.267,0 0,0 m 0,-161.936 c -46.024,0 -83.468,37.444 -83.468,83.468 C -83.468,-32.443 -46.024,5 0,5 46.024,5 83.468,-32.443 83.468,-78.468 83.468,-124.492 46.024,-161.936 0,-161.936" /></g><g
           transform="translate(580.6836,251.3428)"
           id="g64"><path
             id="path66"
             style="fill:#000000;fill-opacity:1;fill-rule:nonzero;stroke:none"
             d="m 0,0 c -25.905,0 -46.98,-21.075 -46.98,-46.98 0,-25.906 21.075,-46.981 46.98,-46.981 25.905,0 46.98,21.075 46.98,46.981 C 46.98,-21.075 25.905,0 0,0 m 0,-98.961 c -28.662,0 -51.98,23.318 -51.98,51.981 C -51.98,-18.318 -28.662,5 0,5 28.662,5 51.98,-18.318 51.98,-46.98 51.98,-75.643 28.662,-98.961 0,-98.961" /></g><g
           transform="translate(580.6836,246.1572)"
           id="g68"><path
             id="path70"
             style="fill:#000000;fill-opacity:1;fill-rule:nonzero;stroke:none"
             d="m 0,0 c -23.046,0 -41.795,-18.749 -41.795,-41.795 0,-23.046 18.749,-41.796 41.795,-41.796 23.046,0 41.795,18.75 41.795,41.796 C 41.795,-18.749 23.046,0 0,0 m 0,-86.591 c -24.7,0 -44.795,20.096 -44.795,44.796 C -44.795,-17.095 -24.7,3 0,3 24.7,3 44.795,-17.095 44.795,-41.795 44.795,-66.495 24.7,-86.591 0,-86.591" /></g><g
           transform="translate(580.6836,211.999)"
           id="g72"><path
             id="path74"
             style="fill:#000000;fill-opacity:1;fill-rule:nonzero;stroke:none"
             d="m 0,0 c -4.211,0 -7.637,-3.426 -7.637,-7.637 0,-4.212 3.426,-7.637 7.637,-7.637 4.211,0 7.637,3.425 7.637,7.637 C 7.637,-3.426 4.211,0 0,0 m 0,-18.274 c -5.865,0 -10.637,4.772 -10.637,10.637 C -10.637,-1.771 -5.865,3 0,3 5.865,3 10.637,-1.771 10.637,-7.637 10.637,-13.502 5.865,-18.274 0,-18.274" /></g><g
           transform="translate(592.3452,190.7988)"
           id="g76"><path
             id="path78"
             style="fill:#000000;fill-opacity:1;fill-rule:nonzero;stroke:none"
             d="m 0,0 v -0.001 z m 0.104,0.185 6.357,-8.503 c 0.572,-0.764 1.316,-1.187 2.214,-1.256 1.195,-0.092 2.541,0.469 3.598,1.5 3.163,3.094 5.553,7.443 6.912,12.58 0.35,1.322 0.156,2.691 -0.519,3.66 -0.541,0.776 -1.345,1.237 -2.325,1.331 L 5.896,10.501 Z m 8.838,-12.77 c -0.167,0 -0.333,0.007 -0.499,0.02 -1.747,0.135 -3.304,1.005 -4.384,2.45 l -6.485,8.675 c -0.633,0.845 -0.707,1.987 -0.19,2.908 l 6,10.688 c 0.517,0.921 1.529,1.447 2.584,1.352 l 10.66,-1.025 c 1.857,-0.178 3.455,-1.102 4.5,-2.603 1.189,-1.707 1.538,-3.946 0.957,-6.142 -1.519,-5.74 -4.114,-10.436 -7.715,-13.957 -1.556,-1.52 -3.509,-2.366 -5.428,-2.366" /></g><g
           transform="translate(574.8066,187.707)"
           id="g80"><path
             id="path82"
             style="fill:#000000;fill-opacity:1;fill-rule:nonzero;stroke:none"
             d="m 0,0 -4.368,-9.678 c -0.393,-0.869 -0.403,-1.725 -0.029,-2.546 0.497,-1.09 1.639,-1.997 3.053,-2.422 4.236,-1.272 9.199,-1.26 14.353,0.035 1.327,0.333 2.431,1.165 2.953,2.224 0.292,0.592 0.536,1.537 0.042,2.678 L 11.83,-0.08 Z m 5.42,-18.605 c -2.666,0 -5.214,0.362 -7.627,1.086 -2.264,0.681 -4.057,2.158 -4.92,4.052 -0.727,1.595 -0.718,3.379 0.024,5.024 l 4.457,9.872 c 0.433,0.962 1.349,1.563 2.451,1.572 h 0.001 L 12.064,2.918 C 13.12,2.911 14.075,2.28 14.497,1.311 l 4.259,-9.827 c 0.742,-1.711 0.706,-3.556 -0.102,-5.197 -0.92,-1.867 -2.711,-3.255 -4.914,-3.808 -2.878,-0.723 -5.657,-1.084 -8.32,-1.084" /></g><g
           transform="translate(562.5356,201.0684)"
           id="g84"><path
             id="path86"
             style="fill:#000000;fill-opacity:1;fill-rule:nonzero;stroke:none"
             d="m 0,0 -10.564,-1.056 c -0.95,-0.094 -1.696,-0.514 -2.219,-1.247 -0.697,-0.976 -0.91,-2.419 -0.571,-3.856 1.016,-4.306 3.508,-8.598 7.206,-12.413 0.952,-0.983 2.229,-1.518 3.403,-1.446 0.944,0.063 1.753,0.514 2.34,1.304 l 6.251,8.429 z m -2.98,-23.025 c -1.933,0 -3.852,0.847 -5.323,2.365 -4.133,4.264 -6.814,8.911 -7.971,13.811 -0.543,2.302 -0.161,4.594 1.049,6.288 1.018,1.427 2.567,2.311 4.363,2.49 L -0.085,3.006 C 0.968,3.112 1.98,2.586 2.502,1.669 L 2.503,1.668 8.56,-8.989 c 0.522,-0.919 0.453,-2.062 -0.177,-2.91 l -6.379,-8.602 c -1.111,-1.498 -2.728,-2.39 -4.552,-2.51 -0.144,-0.01 -0.288,-0.014 -0.432,-0.014" /></g><g
           transform="translate(568.5615,218.6826)"
           id="g88"><path
             id="path90"
             style="fill:#000000;fill-opacity:1;fill-rule:nonzero;stroke:none"
             d="m 0,0 z m -8.818,9.75 c -1.111,0 -2.322,-0.526 -3.301,-1.448 -3.22,-3.033 -5.692,-7.337 -7.147,-12.448 -0.375,-1.316 -0.207,-2.688 0.45,-3.67 0.526,-0.787 1.321,-1.262 2.299,-1.374 l 10.425,-1.2 5.984,10.205 -6.196,8.623 c -0.557,0.774 -1.294,1.21 -2.19,1.296 -0.107,0.011 -0.215,0.016 -0.324,0.016 m 2.901,-23.162 c -0.101,0 -0.202,0.006 -0.304,0.017 l -10.639,1.224 c -1.853,0.213 -3.433,1.167 -4.45,2.688 -1.156,1.729 -1.463,3.974 -0.841,6.16 1.626,5.71 4.309,10.356 7.976,13.808 1.721,1.62 3.896,2.442 5.969,2.236 1.745,-0.168 3.285,-1.068 4.338,-2.533 L 2.453,1.392 c 0.616,-0.857 0.669,-1.999 0.135,-2.91 l -6.2,-10.574 c -0.483,-0.823 -1.365,-1.32 -2.305,-1.32" /></g><g
           transform="translate(574.6997,222.3193)"
           id="g92"><path
             id="path94"
             style="fill:#000000;fill-opacity:1;fill-rule:nonzero;stroke:none"
             d="m 0,0 11.83,-0.08 4.368,9.677 c 0.392,0.869 0.402,1.726 0.029,2.546 -0.498,1.091 -1.639,1.998 -3.054,2.422 -4.238,1.274 -9.201,1.261 -14.353,-0.034 -1.327,-0.333 -2.431,-1.165 -2.953,-2.224 -0.418,-0.85 -0.432,-1.776 -0.041,-2.679 z m 12.041,-3.081 h -0.017 -10e-4 l -12.257,0.083 c -1.058,0.007 -2.013,0.638 -2.433,1.608 l -4.26,9.825 c -0.741,1.711 -0.705,3.557 0.103,5.197 0.919,1.867 2.71,3.255 4.913,3.809 5.758,1.447 11.124,1.446 15.947,-0.003 2.264,-0.68 4.058,-2.157 4.921,-4.052 0.726,-1.595 0.717,-3.379 -0.025,-5.024 l -4.456,-9.871 c -0.433,-0.957 -1.388,-1.572 -2.435,-1.572" /></g><g
           transform="translate(592.5327,218.7412)"
           id="g96"><path
             id="path98"
             style="fill:#000000;fill-opacity:1;fill-rule:nonzero;stroke:none"
             d="m 0,0 5.846,-10.285 10.564,1.056 c 0.949,0.094 1.695,0.514 2.219,1.247 0.697,0.976 0.911,2.418 0.571,3.855 C 18.185,0.179 15.692,4.472 11.994,8.287 11.042,9.27 9.768,9.815 8.591,9.732 7.933,9.688 6.992,9.428 6.251,8.429 Z m 5.666,-13.305 c -0.954,0 -1.845,0.512 -2.323,1.352 l -6.057,10.657 c -0.522,0.919 -0.453,2.062 0.176,2.91 l 6.38,8.602 c 1.111,1.498 2.727,2.389 4.552,2.51 2.082,0.138 4.174,-0.721 5.754,-2.351 4.134,-4.265 6.816,-8.911 7.972,-13.813 0.543,-2.3 0.16,-4.592 -1.049,-6.287 -1.018,-1.426 -2.568,-2.31 -4.363,-2.489 L 5.931,-13.291 C 5.842,-13.3 5.754,-13.305 5.666,-13.305" /></g><g
           transform="translate(893.4404,493.2583)"
           id="g100"><path
             id="path102"
             style="fill:#000000;fill-opacity:1;fill-rule:nonzero;stroke:none"
             d="m 0,0 209.187,-211.77 3.598,1.33 L -0.969,6.093 C -1.057,4.576 -0.872,2.545 0,0 M 207.896,-217.577 -4.328,-2.734 -4.515,-2.226 c -3.308,8.98 -0.081,13.986 0.298,14.527 l 1.72,2.457 224.286,-227.202 z" /></g><g
           transform="translate(845.4395,302.3291)"
           id="g104"><path
             id="path106"
             style="fill:#000000;fill-opacity:1;fill-rule:nonzero;stroke:none"
             d="m 0,0 6.913,-0.14 28.482,29.303 c 0.024,0.029 7.991,8.901 7.867,17.197 l 0.281,189.5 0.007,0.075 c 0.002,0.092 0.002,0.871 -0.447,1.343 -0.442,0.464 -1.283,0.588 -1.964,0.603 -0.601,-0.094 -2.474,-0.519 -2.453,-2.104 V 47.844 c 0.208,-1.649 0.443,-8.876 -9.13,-18.658 z m 8.983,-5.183 -20.919,0.423 37.948,37.474 c 8.44,8.625 7.716,14.48 7.708,14.539 l -0.043,0.228 0.009,0.182 v 188.082 c -0.065,5.017 4.568,6.856 7.026,7.124 l 0.27,0.014 c 3.119,0 4.892,-1.225 5.831,-2.252 1.746,-1.913 1.763,-4.3 1.73,-4.963 L 48.262,46.394 C 48.415,36.146 39.418,26.156 39.035,25.736 Z" /></g><g
           transform="translate(1048.1455,280.5186)"
           id="g108"><path
             id="path110"
             style="fill:#000000;fill-opacity:1;fill-rule:nonzero;stroke:none"
             d="m 0,0 21.391,-3.715 -171.121,60.353 4.697,-5.918 z M 40.339,-12.081 -1.456,-4.788 -148.051,46.478 -164.439,67.127 45.228,-6.82 Z" /></g><g
           transform="translate(914.8154,299.3926)"
           id="g112"><path
             id="path114"
             style="fill:#000000;fill-opacity:1;fill-rule:nonzero;stroke:none"
             d="m 0,0 4.908,-0.701 -28.426,39.13 -1.899,-3.283 z m 15.898,-7.322 -18.707,2.672 -28.561,39.496 7.378,12.742 z" /></g><g
           transform="translate(1059.8213,281.4619)"
           id="g116"><path
             id="path118"
             style="fill:#000000;fill-opacity:1;fill-rule:nonzero;stroke:none"
             d="m 0,0 -1.209,2.746 c 8.87,3.906 28.911,8.937 29.76,9.149 L 29.279,8.984 C 29.073,8.933 8.637,3.805 0,0" /></g><g
           transform="translate(1062.9277,316.1377)"
           id="g120"><path
             id="path122"
             style="fill:#000000;fill-opacity:1;fill-rule:nonzero;stroke:none"
             d="m 0,0 c -0.533,0.068 -53.903,6.909 -103.015,17.205 -0.266,0.051 -29.454,5.571 -61.523,5.169 l -0.039,3 c 32.418,0.402 61.859,-5.172 62.153,-5.228 C -53.403,9.87 -0.153,3.044 0.379,2.977 Z" /></g><g
           transform="translate(1146.5547,284.3457)"
           id="g124"><path
             id="path126"
             style="fill:#000000;fill-opacity:1;fill-rule:nonzero;stroke:none"
             d="m 0,0 -2.971,0.421 c 0.617,4.364 0.51,11.806 -2.395,13.197 l -0.648,0.31 -0.165,0.698 c -0.025,0.091 -0.813,2.792 -5.238,3.064 -0.492,0.044 -4.217,0.3 -5.495,-4.12 l -0.159,-0.548 -0.483,-0.303 h 10e-4 c 0.012,0 -2.498,-2.171 -2.253,-11.907 l -3,-0.077 c -0.241,9.587 2.02,13.009 3.15,14.113 1.731,5.189 6.286,6.092 8.508,5.829 5.193,-0.318 7.059,-3.292 7.649,-4.671 C 1.639,12.719 0.188,1.33 0,0" /></g><path
           id="path128"
           style="fill:#000000;fill-opacity:1;fill-rule:nonzero;stroke:none"
           d="m 1130.756,285.26 h -3 v 17.29 h 3 z" /><path
           id="path130"
           style="fill:#000000;fill-opacity:1;fill-rule:nonzero;stroke:none"
           d="m 1142.142,285.471 h -3 v 17.712 h 3 z" /><g
           transform="translate(1099.1357,292.3135)"
           id="g132"><path
             id="path134"
             style="fill:#000000;fill-opacity:1;fill-rule:nonzero;stroke:none"
             d="m 0,0 -0.768,2.9 c 0.123,0.033 12.479,3.287 30.446,6.979 l 0.603,-2.94 C 12.402,3.267 0.121,0.032 0,0" /></g><g
           transform="translate(1139.1768,301.1631)"
           id="g136"><path
             id="path138"
             style="fill:#000000;fill-opacity:1;fill-rule:nonzero;stroke:none"
             d="m 0,0 -0.303,2.984 c 0.166,0.017 16.706,1.715 29.625,4.919 7.119,1.765 11.293,4.49 13.549,6.476 -10.722,-0.741 -43.528,-2.673 -82.594,-1.735 -0.191,0.02 -6.099,0.011 -22.839,1.163 l 0.206,2.992 c 16.59,-1.14 22.611,-1.155 22.669,-1.155 47.471,-1.147 85.63,1.965 86.01,1.998 l 2.805,0.232 -1.37,-2.458 C 47.599,15.13 43.698,8.377 30.045,4.991 16.915,1.734 0.167,0.017 0,0" /></g><g
           transform="translate(1133.7461,298.7539)"
           id="g140"><path
             id="path142"
             style="fill:#000000;fill-opacity:1;fill-rule:nonzero;stroke:none"
             d="m 0,0 c 0.207,-0.165 0.709,-0.397 1.431,-0.397 0.721,0 1.223,0.232 1.43,0.397 C 2.654,0.166 2.152,0.398 1.431,0.398 0.709,0.398 0.207,0.166 0,0 m 1.431,-3.397 c -2.527,0 -4.505,1.492 -4.505,3.397 0,1.905 1.978,3.398 4.505,3.398 2.526,0 4.505,-1.493 4.505,-3.398 0,-1.905 -1.979,-3.397 -4.505,-3.397" /></g><g
           transform="translate(1133.8818,290.7275)"
           id="g144"><path
             id="path146"
             style="fill:#000000;fill-opacity:1;fill-rule:nonzero;stroke:none"
             d="m 0,0 -0.036,-3.638 2.889,0.026 v 3.471 C 2.755,-0.014 2.4,0.353 1.246,0.308 0.414,0.276 0.077,0.078 0,0 m -3.067,-6.665 0.068,6.713 c -0.014,0.534 0.18,1.305 0.766,1.954 0.729,0.809 1.862,1.247 3.366,1.304 C 4.334,3.438 5.605,1.473 5.821,0.423 L 5.853,0.12 v -6.705 z" /></g><g
           transform="translate(873.3281,152.0146)"
           id="g148"><path
             id="path150"
             style="fill:#000000;fill-opacity:1;fill-rule:nonzero;stroke:none"
             d="m 0,0 -114.693,0.437 c -12.391,0.106 -16.426,4.286 -17.252,5.348 -29.809,33.988 -122.993,141.398 -123.931,142.479 l -0.843,0.971 2.49,10.375 2.147,-0.189 c 33.894,-2.99 85.879,-4.68 180.253,-7.747 11.973,-0.389 24.64,-0.801 38.055,-1.24 118.88,-3.898 207.578,-21.729 208.46,-21.908 l -0.999,-4.9 c -0.877,0.18 -89.191,17.927 -207.625,21.81 -13.415,0.44 -26.082,0.851 -38.053,1.241 -92.497,3.006 -144.314,4.69 -178.382,7.578 l -0.884,-3.686 c 9.442,-10.882 94.912,-109.381 123.131,-141.555 l 0.188,-0.231 c 0.41,-0.43 3.477,-3.262 13.276,-3.346 L -8.145,5.031 c -3.351,6.772 -10.738,22.035 -17.312,37.963 -16.418,39.775 -13.872,49.255 -10.529,52.927 11.476,12.6 23.692,13.686 50.227,14.94 0.678,0.023 65.412,2.015 182.689,-6.54 l -0.364,-4.986 c -117.014,8.535 -181.486,6.551 -182.125,6.53 -26.862,-1.269 -36.675,-2.27 -46.73,-13.311 -1.326,-1.455 -4.419,-9.193 11.443,-47.627 8.715,-21.118 18.88,-41.075 18.982,-41.275 z" /></g><g
           transform="translate(952.5615,153.0303)"
           id="g152"><path
             id="path154"
             style="fill:#000000;fill-opacity:1;fill-rule:nonzero;stroke:none"
             d="m 0,0 h -83.324 v 3 h 81.778 c 30.57,42.319 102.904,65.694 103.636,65.927 l 0.908,-2.86 C 102.273,65.837 30.167,42.527 0.448,0.632 Z" /></g><g
           transform="translate(964.4346,152.6025)"
           id="g156"><path
             id="path158"
             style="fill:#000000;fill-opacity:1;fill-rule:nonzero;stroke:none"
             d="m 0,0 h 52.854 l 2.079,8.64 C 41.053,5.354 14.438,1.803 0,0 m 56.795,-5 h -386.556 l 12.481,14.418 h 80.705 v -5 h -78.42 L -318.819,0 H -20.396 L 88.926,42.283 90.729,37.619 9.775,6.309 c 16.501,2.192 38.567,5.437 47.85,8.206 l 4.16,1.241 z" /></g><g
           transform="translate(962.4023,163.2383)"
           id="g160"><path
             id="path162"
             style="fill:#000000;fill-opacity:1;fill-rule:nonzero;stroke:none"
             d="m 0,0 -1.832,4.652 91.791,36.127 1.832,-4.652 z" /></g><g
           transform="translate(1075.8594,149.5859)"
           id="g164"><path
             id="path166"
             style="fill:#000000;fill-opacity:1;fill-rule:nonzero;stroke:none"
             d="m 0,0 h -56.178 v 3 h 50.092 l -3.74,4.872 h -44.525 v 3 h 46.003 z" /></g><g
           transform="translate(891.7832,451.0571)"
           id="g168"><path
             id="path170"
             style="fill:#000000;fill-opacity:1;fill-rule:nonzero;stroke:none"
             d="m 0,0 -1.023,2.819 28.149,10.227 1.023,-2.819 z" /></g><g
           transform="translate(891.668,479.8584)"
           id="g172"><path
             id="path174"
             style="fill:#000000;fill-opacity:1;fill-rule:nonzero;stroke:none"
             d="M 0,0 -0.934,2.851 7.22,5.521 8.153,2.671 Z" /></g><g
           transform="translate(905.7744,429.1323)"
           id="g176"><path
             id="path178"
             style="fill:#000000;fill-opacity:1;fill-rule:nonzero;stroke:none"
             d="m 0,0 h -3 v 23.1 h -7.075 v 3 H 0 Z" /></g><g
           transform="translate(895.4629,339.8506)"
           id="g180"><path
             id="path182"
             style="fill:#000000;fill-opacity:1;fill-rule:nonzero;stroke:none"
             d="m 0,0 -0.932,2.852 6.888,2.249 c 6.731,2.6 6.701,6.746 6.699,6.787 l -0.002,73.88 c 0,1.013 -0.199,1.469 -0.299,1.594 L 12.185,87.36 H -4.262 v 3 h 16.347 c 0.422,0.043 1.298,0.034 2.127,-0.636 0.956,-0.773 1.441,-2.104 1.441,-3.956 V 11.969 C 15.665,11.792 15.888,5.721 6.962,2.275 Z" /></g><g
           transform="translate(890.8428,343.5117)"
           id="g184"><path
             id="path186"
             style="fill:#000000;fill-opacity:1;fill-rule:nonzero;stroke:none"
             d="m 0,0 -0.971,2.839 11.106,3.796 c 0.899,0.319 2.219,1.153 2.219,1.813 V 78.357 H 1.062 v 3 H 15.354 V 8.448 c 0,-3.087 -3.807,-4.499 -4.241,-4.65 z" /></g><path
           id="path188"
           style="fill:#000000;fill-opacity:1;fill-rule:nonzero;stroke:none"
           d="m 904.274,355.521 h -13.073 v 3 h 13.073 z" /><g
           transform="translate(816.542,159.7266)"
           id="g190"><path
             id="path192"
             style="fill:#000000;fill-opacity:1;fill-rule:nonzero;stroke:none"
             d="m 0,0 c -4.961,8.18 -48.305,80.316 -42.846,94.105 l 0.575,1.466 c 5.059,12.979 7.154,18.35 60.657,20.005 53.985,1.675 228.673,-13.904 230.431,-14.062 l -0.267,-2.989 c -1.757,0.158 -176.217,15.715 -230.072,14.053 -51.52,-1.595 -53.404,-6.425 -57.955,-18.097 l -0.58,-1.479 C -43.774,83.609 -16.604,33.168 2.564,1.555 Z" /></g><g
           transform="translate(805.791,158.7256)"
           id="g194"><path
             id="path196"
             style="fill:#000000;fill-opacity:1;fill-rule:nonzero;stroke:none"
             d="m 0,0 c -0.484,0.998 -48.633,99.912 -71.132,108.044 -23.02,8.32 -112.304,34.01 -113.203,34.268 l 0.829,2.883 c 0.9,-0.258 90.28,-25.975 113.394,-34.329 C -46.476,102.322 0.703,5.429 2.699,1.309 Z" /></g><g
           transform="translate(1042.1006,274.835)"
           id="g198"><path
             id="path200"
             style="fill:#000000;fill-opacity:1;fill-rule:nonzero;stroke:none"
             d="m 0,0 -145.349,7.029 c -197.714,7.508 -272.769,22.928 -273.504,23.083 l 0.619,2.936 c 0.733,-0.154 75.611,-15.526 273.014,-23.022 L 0.145,2.996 Z" /></g><g
           transform="translate(682.3857,352.0762)"
           id="g202"><path
             id="path204"
             style="fill:#000000;fill-opacity:1;fill-rule:nonzero;stroke:none"
             d="M 0,0 C -0.001,0 0.001,-0.029 0.014,-0.075 L 0,-0.002 C 0,-0.001 0,0 0,0 M 8.646,-47.444 0.017,-0.09 c -0.205,0.535 -1.307,0.867 -3.34,0.414 -2.507,-0.556 -2.901,-1.046 -2.916,-1.066 -0.094,-0.246 0.034,-1.272 0.129,-2.022 l 0.088,-0.715 c 0.326,-2.771 5.092,-28.829 7.566,-42.22 l -4.917,-0.908 c -0.293,1.586 -7.188,38.92 -7.615,42.545 l -0.083,0.673 c -0.494,3.921 -0.317,7.043 6.663,8.594 C -1.571,5.836 0.755,5.564 2.505,4.396 4.442,3.103 4.858,1.24 4.922,0.881 l 8.642,-47.429 z" /></g><g
           transform="translate(517.4165,150.1328)"
           id="g206"><path
             id="path208"
             style="fill:#000000;fill-opacity:1;fill-rule:nonzero;stroke:none"
             d="m 0,0 -162.779,0.702 -133.135,-0.424 -0.731,0.709 c -4.579,4.445 -50.54,70.218 -51.879,77.082 -1.237,6.337 4.048,18.892 4.655,20.303 l 0.334,0.776 0.738,0.415 c 0.754,0.423 76.841,42.702 204.736,74.047 127.775,31.319 241.147,39.21 242.277,39.286 l 1.797,0.122 13.778,-33.584 43.512,-17.529 -1.868,-4.638 -45.469,18.317 -13.207,32.191 c -14.968,-1.138 -121.07,-9.962 -239.63,-39.02 -120.513,-29.538 -194.604,-68.727 -202.735,-73.144 -2.029,-4.922 -4.684,-13.135 -4.011,-16.585 1.439,-5.534 42.786,-65.486 49.809,-73.741 L -162.776,5.702 0.021,5 Z" /></g><g
           transform="translate(664.5122,304.0264)"
           id="g210"><path
             id="path212"
             style="fill:#000000;fill-opacity:1;fill-rule:nonzero;stroke:none"
             d="M 0,0 -38.83,15.647 -38.526,5.77 -43.524,5.615 -44.063,23.147 1.869,4.637 Z" /></g><g
           transform="translate(616.0767,307.3848)"
           id="g214"><path
             id="path216"
             style="fill:#000000;fill-opacity:1;fill-rule:nonzero;stroke:none"
             d="m 0,0 -5,0.029 0.211,36.688 5,-0.028 z" /></g><g
           transform="translate(634.6543,325.8926)"
           id="g218"><path
             id="path220"
             style="fill:#000000;fill-opacity:1;fill-rule:nonzero;stroke:none"
             d="m 0,0 -12.266,5.224 -0.453,13.606 2.998,0.1 L -9.331,7.235 1.176,2.76 Z" /></g><g
           transform="translate(353.3003,152.6768)"
           id="g222"><path
             id="path224"
             style="fill:#000000;fill-opacity:1;fill-rule:nonzero;stroke:none"
             d="m 0,0 c -11.057,22.64 -15.194,34.746 -20.921,51.502 -1.871,5.471 -3.99,11.672 -6.553,18.793 -9.997,27.768 7.074,37.202 8.813,38.076 30.703,20.332 183.955,43.644 196.333,45.501 10.424,12.592 30.658,27.872 42.04,33.272 10.262,4.867 42.949,5.761 49.241,5.89 l 0.047,0.117 -1.776,13.67 2.974,0.387 1.878,-14.444 -1.078,-2.698 -1,-0.014 c -0.383,-0.006 -38.455,-0.617 -49,-5.619 -11.228,-5.327 -31.306,-20.531 -41.369,-32.906 l -0.367,-0.451 -0.575,-0.086 C 177.038,150.744 13.495,126.203 -17.078,105.821 l -0.221,-0.122 c -0.688,-0.312 -16.847,-8.013 -7.353,-34.388 2.572,-7.144 4.696,-13.358 6.569,-18.839 5.692,-16.653 9.805,-28.685 20.778,-51.156 z" /></g><g
           transform="translate(418.4595,151.9639)"
           id="g226"><path
             id="path228"
             style="fill:#000000;fill-opacity:1;fill-rule:nonzero;stroke:none"
             d="m 0,0 c -1.06,2.128 -25.923,52.243 -23.748,63.987 2.273,12.276 20.078,15.416 20.835,15.544 0.211,0.051 30.266,6.819 93.524,12.455 l 0.267,-2.988 C 27.82,83.38 -2.035,76.656 -2.329,76.59 -2.578,76.545 -18.907,73.653 -20.798,63.44 -22.453,54.505 -4.407,15.581 2.686,1.338 Z" /></g><g
           transform="translate(409.9526,170.8428)"
           id="g230"><path
             id="path232"
             style="fill:#000000;fill-opacity:1;fill-rule:nonzero;stroke:none"
             d="m 0,0 -0.965,4.906 91.089,17.923 0.965,-4.906 z" /></g><g
           transform="translate(406.9751,179.2725)"
           id="g234"><path
             id="path236"
             style="fill:#000000;fill-opacity:1;fill-rule:nonzero;stroke:none"
             d="m 0,0 -0.914,4.916 92.987,17.29 0.914,-4.916 z" /></g><g
           transform="translate(499.4448,210.1836)"
           id="g238"><path
             id="path240"
             style="fill:#000000;fill-opacity:1;fill-rule:nonzero;stroke:none"
             d="m 0,0 -57.141,22.14 1.807,4.662 57.141,-22.14 z" /></g><g
           transform="translate(500.7305,219.2432)"
           id="g242"><path
             id="path244"
             style="fill:#000000;fill-opacity:1;fill-rule:nonzero;stroke:none"
             d="M 0,0 -41.327,15.603 -39.562,20.28 1.766,4.678 Z" /></g><g
           transform="translate(178.2236,245.9756)"
           id="g246"><path
             id="path248"
             style="fill:#000000;fill-opacity:1;fill-rule:nonzero;stroke:none"
             d="m 0,0 -1.386,2.66 c 60.585,31.546 153.281,57.837 154.21,58.099 163.616,40.07 286.942,44.923 288.168,44.967 l 0.109,-2.998 C 439.877,102.684 316.835,97.837 153.587,57.858 152.711,57.61 60.307,31.4 0,0" /></g><g
           transform="translate(583.5527,295.0879)"
           id="g250"><path
             id="path252"
             style="fill:#000000;fill-opacity:1;fill-rule:nonzero;stroke:none"
             d="M 0,0 -0.396,2.975 C -0.434,2.969 -0.485,2.942 -0.504,2.922 c 0.312,0.322 0.425,1.938 0.228,3.263 l -0.015,0.145 -0.362,7.066 37.43,-0.147 -0.011,-3 L 2.505,10.384 2.702,6.555 C 2.812,5.785 3.14,2.778 1.904,1.133 1.425,0.494 0.767,0.103 0,0" /></g><g
           transform="translate(171.4243,228.04)"
           id="g254"><path
             id="path256"
             style="fill:#000000;fill-opacity:1;fill-rule:nonzero;stroke:none"
             d="m 0,0 -0.438,2.967 c 15.818,2.34 54.953,17.337 55.346,17.488 l 0.11,0.037 c 161.078,47.99 302.34,57.741 303.749,57.834 l 42.469,2.186 0.102,-1.471 c 0.012,-0.169 0.285,-4.17 0.285,-7.835 0,-0.709 0.254,-1.041 0.446,-1.228 0.688,-0.673 2.052,-0.792 2.512,-0.787 l 0.086,-2.998 c -0.297,-0.014 -2.96,-0.042 -4.68,1.624 -0.893,0.866 -1.364,2.037 -1.364,3.389 0,2.236 -0.109,4.656 -0.19,6.157 L 358.942,75.331 C 357.559,75.239 216.645,65.508 55.93,17.634 53.658,16.762 15.994,2.365 0,0" /></g><g
           transform="translate(581.7842,285.5859)"
           id="g258"><path
             id="path260"
             style="fill:#000000;fill-opacity:1;fill-rule:nonzero;stroke:none"
             d="m 0,0 -0.352,20.382 -0.494,21.05 0.015,0.113 c 0.029,0.268 -0.006,0.985 -0.313,1.273 -0.231,0.216 -0.76,0.271 -1.455,0.15 l -0.211,-0.037 -0.213,0.023 c 0.029,-0.003 -0.29,0.009 -0.532,-0.213 C -3.831,42.487 -4,41.947 -4.03,41.221 -4.167,37.849 -4.03,0.548 -4.028,0.172 l -3,-0.012 c -0.006,1.54 -0.139,37.745 10e-4,41.184 0.067,1.63 0.584,2.871 1.536,3.689 0.956,0.821 2.066,0.913 2.537,0.916 2.044,0.314 3.239,-0.347 3.887,-0.967 1.322,-1.264 1.273,-3.137 1.226,-3.687 L 2.648,20.442 3,0.051 Z" /></g><g
           transform="translate(583.1172,318.7275)"
           id="g262"><path
             id="path264"
             style="fill:#000000;fill-opacity:1;fill-rule:nonzero;stroke:none"
             d="m 0,0 -0.65,2.929 c 2.063,0.457 3.9,2.983 4.435,3.918 4.033,7.075 -1.738,14.936 -1.797,15.014 l 2.403,1.797 C 4.679,23.272 11.388,14.126 6.39,5.359 6.125,4.896 3.704,0.821 0,0" /></g><g
           transform="translate(575.9741,318.4521)"
           id="g266"><path
             id="path268"
             style="fill:#000000;fill-opacity:1;fill-rule:nonzero;stroke:none"
             d="m 0,0 c -0.293,0.07 -7.195,1.846 -7.822,11.481 l -0.004,0.066 0.142,6.39 2.999,-0.066 -0.139,-6.259 c 0.503,-7.3 5.335,-8.645 5.541,-8.699 z" /></g><g
           transform="translate(590.043,326.042)"
           id="g270"><path
             id="path272"
             style="fill:#000000;fill-opacity:1;fill-rule:nonzero;stroke:none"
             d="m 0,0 -2.975,0.383 c 0.005,0.044 0.525,4.462 -1.817,7.19 -1.212,1.41 -3.046,2.159 -5.452,2.227 0.028,-0.002 -3.865,-0.109 -6.162,-2.561 -1.241,-1.325 -1.819,-3.152 -1.717,-5.431 L -21.12,1.673 c -0.14,3.129 0.716,5.699 2.544,7.638 3.182,3.376 8.142,3.485 8.352,3.488 3.36,-0.092 5.937,-1.198 7.722,-3.289 C 0.705,5.756 0.03,0.233 0,0" /></g></g></g></g></svg>