<?xml version="1.0" standalone="no"?>
<!DOCTYPE svg PUBLIC "-//W3C//DTD SVG 20010904//EN"
 "http://www.w3.org/TR/2001/REC-SVG-20010904/DTD/svg10.dtd">
<svg version="1.0" xmlns="http://www.w3.org/2000/svg"
 width="150.000000pt" height="150.000000pt" viewBox="0 0 150.000000 150.000000"
 preserveAspectRatio="xMidYMid meet">
<metadata>
Created by potrace 1.11, written by Peter Selinger 2001-2013
</metadata>
<g transform="translate(0.000000,150.000000) scale(0.100000,-0.100000)"
fill="#000000" stroke="none">
<path d="M334 1231 c-2 -2 -4 -75 -4 -162 l0 -159 -162 -2 -162 -3 -1 -153 c0
-85 2 -157 5 -161 3 -4 74 -8 157 -8 84 1 155 -2 159 -5 3 -4 5 -77 5 -162 -2
-143 0 -156 16 -157 26 -1 264 -1 291 0 22 1 22 2 22 164 l0 162 -162 0 -163
0 -2 163 -3 162 165 0 165 0 2 -162 3 -163 150 -1 c83 -1 155 1 161 3 8 3 11
53 10 161 l-2 157 -162 3 -162 2 -2 163 -3 162 -158 0 c-87 0 -160 -2 -163 -4z"/>
<path d="M1000 1232 c-13 -2 -15 -28 -15 -163 l0 -160 90 5 c129 7 195 16 195
28 0 5 12 8 27 6 14 -2 28 2 30 8 2 7 -31 10 -101 9 -57 0 -102 3 -99 8 2 4
12 7 21 5 10 -1 31 2 47 7 17 4 44 9 60 9 17 1 39 6 50 12 11 6 30 9 43 8 12
0 22 4 22 10 0 8 -30 10 -95 8 -59 -2 -95 0 -95 6 0 6 14 8 30 6 17 -3 30 -1
30 5 0 6 19 11 43 11 23 0 50 7 60 14 9 7 28 11 42 8 15 -2 25 0 25 7 0 7 -36
12 -107 13 -60 0 -92 3 -73 5 19 3 39 9 45 14 5 5 31 9 57 9 26 0 48 5 48 10
0 6 16 10 35 10 19 0 35 5 35 10 0 6 -44 11 -107 12 -60 1 -89 3 -65 5 23 2
42 8 42 13 0 5 21 9 46 8 28 0 49 5 54 12 4 7 17 10 29 7 11 -3 25 0 30 7 7 8
-50 11 -227 11 -130 0 -244 -1 -252 -3z"/>
<path d="M1003 580 c-16 -5 -18 -19 -18 -159 0 -136 2 -155 17 -160 27 -9 152
-5 174 6 10 6 33 10 49 9 17 -2 33 2 36 7 4 5 21 10 38 11 17 0 33 6 35 11 2
7 -33 10 -106 9 -60 -1 -106 1 -103 4 3 3 20 6 38 7 17 0 38 4 45 9 8 5 31 8
53 8 21 -1 39 3 39 9 0 5 16 9 35 9 19 0 35 5 35 10 0 6 -44 11 -107 12 -60 1
-89 3 -65 5 23 2 42 8 42 14 0 5 23 9 50 9 28 0 50 5 50 10 0 6 16 10 35 10
19 0 35 5 35 10 0 6 -44 11 -107 12 -60 1 -90 3 -68 5 22 3 44 8 50 12 5 4 25
8 44 9 19 2 39 6 45 10 6 4 24 7 40 8 17 0 31 5 33 10 2 7 -35 10 -102 10 -58
-1 -105 2 -105 7 0 4 18 7 39 7 22 0 42 4 46 9 3 6 23 9 45 7 22 -2 41 2 43 8
2 6 13 12 25 12 50 3 55 4 48 11 -8 8 -455 11 -483 3z"/>
</g>
</svg>
