<svg width="150" height="99" viewBox="0 0 150 99" fill="none" xmlns="http://www.w3.org/2000/svg">
<path d="M33.2153 65.6498H0.57666V33.0525H33.2153V65.6498Z" fill="#19255B"/>
<path d="M98.4912 65.6498H65.8525V33.0525H98.4912V65.6498Z" fill="#19255B"/>
<path d="M65.8526 33.0525H33.2153V0.453788H65.8526V33.0525Z" fill="#19255B"/>
<path d="M65.8526 98.2471H33.2153V65.6498H65.8526V98.2471Z" fill="#19255B"/>
<path d="M149.144 0.478841L148.147 2.25751H142.155L140.895 4.26551H132.234L131.275 6.03484H124.223L123.538 7.25217H145.351L144.358 9.03084H138.394L137.135 11.0388H128.474L127.514 12.8068H120.412L119.736 14.0095H141.562L140.58 15.7882H134.616L133.356 17.7962H124.695L123.735 19.5642H116.612L115.943 20.7548H137.779L136.795 22.5335H130.832L129.572 24.5415H120.911L119.951 26.3108H112.818L112.15 27.4988H133.996L133.014 29.2788H127.051L125.791 31.2855H117.13L116.171 33.0548L98.4964 33.0562C98.4964 33.1735 98.4844 0.477508 98.4844 0.477508L149.144 0.478841Z" fill="#19255B"/>
<path d="M149.148 65.65L148.151 67.4286H142.158L140.899 69.4366H132.236L131.279 71.206H124.226L123.542 72.422H145.355L144.362 74.202H138.398L137.139 76.2086H128.476L127.518 77.978H120.416L119.74 79.1793H141.566L140.583 80.9593H134.62L133.36 82.9673H124.699L123.739 84.7353H116.616L115.947 85.9246H137.782L136.799 87.7046H130.835L129.576 89.7126H120.914L119.955 91.4806H112.822L112.154 92.67H134L133.018 94.45H127.054L125.794 96.4566H117.132L116.175 98.226L98.5003 98.2273C98.5003 98.3446 98.4883 65.6487 98.4883 65.6487L149.148 65.65Z" fill="#19255B"/>
</svg>
