<svg width="586" height="154" viewBox="0 0 586 154" fill="none" xmlns="http://www.w3.org/2000/svg">
<path d="M90.8508 141.711H86.5735V107.813H90.8508V122.513H116.247V107.813H120.524V141.711H116.247V126.792H90.8508V141.711Z" fill="#EF7911"/>
<path d="M142.186 130.411C142.186 126.516 139.005 123.335 135.11 123.335C131.215 123.335 128.035 126.516 128.035 130.411C128.035 134.306 131.215 137.487 135.11 137.487C139.005 137.487 142.186 134.306 142.186 130.411ZM146.41 130.411V141.711H142.186V139.242C140.211 140.778 137.798 141.711 135.11 141.711C128.858 141.711 123.811 136.664 123.811 130.411C123.811 124.159 128.858 119.112 135.11 119.112C141.363 119.112 146.41 124.159 146.41 130.411" fill="#EF7911"/>
<path d="M153.921 141.711H149.698V130.411C149.698 124.159 154.744 119.113 160.997 119.113C167.25 119.113 172.296 124.159 172.296 130.411V141.711H168.072V130.411C168.072 126.516 164.892 123.336 160.997 123.336C157.102 123.336 153.921 126.516 153.921 130.411V141.711Z" fill="#EF7911"/>
<path d="M198.181 121.196V123.391L182.001 137.487H198.181V141.711H175.583V139.68V137.487L191.709 123.391H175.583V119.114H198.181V121.196Z" fill="#EF7911"/>
<path d="M272.933 117.358C272.933 114.395 270.575 112.036 267.613 112.036H247.537V122.623H267.613C270.575 122.623 272.933 120.264 272.933 117.358ZM277.211 132.166V141.711H272.933V132.166C272.933 129.26 270.575 126.846 267.613 126.846H247.537V141.711H243.259V107.814H267.613C272.879 107.814 277.156 112.092 277.156 117.358C277.156 120.319 275.785 123.006 273.647 124.762C275.785 126.516 277.211 129.15 277.211 132.166" fill="#EF7911"/>
<path d="M298.873 130.411C298.873 126.516 295.691 123.335 291.797 123.335C287.903 123.335 284.721 126.516 284.721 130.411C284.721 134.306 287.903 137.487 291.797 137.487C295.691 137.487 298.873 134.306 298.873 130.411ZM303.096 130.411V141.711H298.873V139.242C296.899 140.778 294.484 141.711 291.797 141.711C285.544 141.711 280.499 136.664 280.499 130.411C280.499 124.159 285.544 119.112 291.797 119.112C298.051 119.112 303.096 124.159 303.096 130.411Z" fill="#EF7911"/>
<path d="M331.448 119.112H335.725V141.71H331.448V119.112ZM335.725 114.834H331.448V110.61H335.725V114.834Z" fill="#EF7911"/>
<path d="M343.238 141.711H339.015V130.411C339.015 124.159 344.061 119.113 350.314 119.113C356.567 119.113 361.613 124.159 361.613 130.411V141.711H357.39V130.411C357.39 126.516 354.209 123.336 350.314 123.336C346.421 123.336 343.238 126.516 343.238 130.411V141.711Z" fill="#EF7911"/>
<path d="M383.276 130.411C383.276 126.516 380.093 123.335 376.198 123.335C372.305 123.335 369.178 126.516 369.178 130.411C369.178 134.306 372.305 137.432 376.198 137.432C380.093 137.432 383.276 134.306 383.276 130.411ZM383.276 141.656V139.187C381.356 140.778 378.888 141.711 376.198 141.711C370.001 141.711 364.901 136.608 364.901 130.411C364.901 124.159 370.001 119.112 376.198 119.112C382.453 119.112 387.498 124.159 387.498 130.411V141.656V141.711C387.498 147.908 382.453 153.01 376.198 153.01C370.933 153.01 366.545 149.388 365.285 144.507H369.728C370.824 146.976 373.348 148.731 376.198 148.731C380.093 148.731 383.276 145.606 383.276 141.711V141.656Z" fill="#EF7911"/>
<path d="M411.519 137.487H424.243C431.21 137.487 436.914 131.783 436.914 124.761C436.914 117.74 431.21 112.036 424.243 112.036H411.519V137.487ZM424.243 141.711H407.241V107.813H424.243C433.569 107.813 441.193 115.383 441.193 124.761C441.193 134.141 433.569 141.711 424.243 141.711" fill="#EF7911"/>
<path d="M444.479 119.112H448.756V141.71H444.479V119.112ZM448.756 114.834H444.479V110.61H448.756V114.834Z" fill="#EF7911"/>
<path d="M469.433 119.113H473.987L464.991 141.71H462.687H460.439L451.388 119.113H455.941L462.687 136.006L469.433 119.113Z" fill="#EF7911"/>
<path d="M478.372 119.112H482.649V141.71H478.372V119.112ZM482.649 114.834H478.372V110.61H482.649V114.834Z" fill="#EF7911"/>
<path d="M511.825 119.112H516.103V141.71H511.825V119.112ZM516.103 114.834H511.825V110.61H516.103V114.834Z" fill="#EF7911"/>
<path d="M537.768 130.411C537.768 126.516 534.585 123.335 530.691 123.335C526.797 123.335 523.616 126.516 523.616 130.411C523.616 134.306 526.797 137.432 530.691 137.432C534.585 137.432 537.768 134.306 537.768 130.411ZM541.991 130.411C541.991 136.608 536.945 141.711 530.691 141.711C524.439 141.711 519.393 136.608 519.393 130.411C519.393 124.159 524.439 119.112 530.691 119.112C536.945 119.112 541.991 124.159 541.991 130.411Z" fill="#EF7911"/>
<path d="M549.502 141.711H545.28V130.411C545.28 124.159 550.325 119.113 556.58 119.113C562.832 119.113 567.877 124.159 567.877 130.411V141.711H563.654V130.411C563.654 126.516 560.473 123.336 556.58 123.336C552.685 123.336 549.502 126.516 549.502 130.411V141.711Z" fill="#EF7911"/>
<path d="M492.631 123.336H508.538V119.113H492.631C488.957 119.113 485.939 122.074 485.939 125.805C485.939 129.478 488.957 132.496 492.631 132.496H501.846C503.217 132.496 504.315 133.648 504.315 134.965C504.315 136.336 503.217 137.432 501.846 137.432H485.939L490.218 141.71H501.846C505.521 141.71 508.538 138.694 508.538 134.965C508.538 131.289 505.521 128.272 501.846 128.272H492.631C491.261 128.272 490.162 127.176 490.162 125.805C490.162 124.433 491.261 123.336 492.631 123.336Z" fill="#EF7911"/>
<path d="M317.683 137.487C313.789 137.487 310.662 134.305 310.662 130.411C310.662 126.516 313.789 123.391 317.683 123.391C319.987 123.391 322.071 124.488 323.331 126.188L326.342 123.179C324.279 120.711 321.178 119.113 317.683 119.113C311.485 119.113 306.383 124.213 306.383 130.411C306.383 136.665 311.485 141.711 317.683 141.711C322.454 141.711 326.514 138.803 328.158 134.689H323.331C322.071 136.391 319.987 137.487 317.683 137.487Z" fill="#EF7911"/>
<path d="M212.22 123.39C215.347 123.39 218.033 125.474 218.967 128.326H205.473C206.351 125.474 209.039 123.39 212.22 123.39ZM217.267 135.404C215.949 136.665 214.195 137.486 212.22 137.486C209.039 137.486 206.351 135.404 205.473 132.55H223.3C223.409 131.893 223.52 131.18 223.52 130.412C223.52 124.213 218.472 119.113 212.22 119.113C205.968 119.113 200.92 124.213 200.92 130.412C200.92 136.665 205.968 141.71 212.22 141.71C215.344 141.71 218.18 140.418 220.227 138.364L217.267 135.404Z" fill="#EF7911"/>
<path d="M13.2113 98.5634H0.854004V0.655452H13.2113V43.1141H86.5633V0.655452H98.9207V98.5634H86.5633V55.4714H13.2113V98.5634Z" fill="#19255B"/>
<path d="M120.778 59.7489H194.13V49.6102C194.13 29.3316 177.654 12.8542 157.376 12.8542C137.097 12.8542 120.778 29.3316 120.778 49.6102V59.7489ZM120.778 98.5636H108.421V49.6102C108.421 22.5182 130.442 0.655574 157.376 0.655574C184.466 0.655574 206.329 22.5182 206.329 49.6102V98.5636H194.13V72.1062H120.778V98.5636Z" fill="#19255B"/>
<path d="M301.54 28.2216C301.54 19.667 294.728 12.855 286.172 12.855H228.188V43.431H286.172C294.728 43.431 301.54 36.619 301.54 28.2216ZM313.897 70.9976V98.563H301.54V70.9976C301.54 62.6003 294.728 55.6296 286.172 55.6296H228.188V98.563H215.831V0.656297H286.172C301.381 0.656297 313.737 13.0123 313.737 28.2216C313.737 36.7776 309.779 44.5403 303.599 49.6096C309.779 54.679 313.897 62.283 313.897 70.9976Z" fill="#19255B"/>
<path d="M335.756 86.3641H372.51C392.631 86.3641 409.108 69.8881 409.108 49.6095C409.108 29.3308 392.631 12.8548 372.51 12.8548H335.756V86.3641ZM372.51 98.5628H323.398V0.656144H372.51C399.444 0.656144 421.464 22.5188 421.464 49.6095C421.464 76.7001 399.444 98.5628 372.51 98.5628" fill="#19255B"/>
<path d="M469.464 66.347H436.825V33.7497H469.464V66.347Z" fill="#19255B"/>
<path d="M534.74 66.347H502.101V33.7497H534.74V66.347Z" fill="#19255B"/>
<path d="M502.101 33.7496H469.464V1.15096H502.101V33.7496Z" fill="#19255B"/>
<path d="M502.101 98.9443H469.464V66.3469H502.101V98.9443Z" fill="#19255B"/>
<path d="M585.393 1.17601L584.396 2.95468H578.404L577.144 4.96268H568.482L567.524 6.73201H560.472L559.786 7.94935H581.6L580.606 9.72801H574.642L573.384 11.736H564.722L563.762 13.504H556.661L555.985 14.7067H577.81L576.829 16.4853H570.865L569.605 18.4933H560.944L559.984 20.2613H552.861L552.192 21.452H574.028L573.044 23.2307H567.081L565.821 25.2387H557.16L556.2 27.008H549.066L548.398 28.196H570.245L569.262 29.976H563.3L562.04 31.9827H553.378L552.42 33.752L534.745 33.7533C534.745 33.8707 534.733 1.17468 534.733 1.17468L585.393 1.17601Z" fill="#19255B"/>
<path d="M585.397 66.3472L584.399 68.1258H578.406L577.147 70.1338H568.485L567.527 71.9032H560.474L559.79 73.1192H581.603L580.61 74.8992H574.646L573.387 76.9058H564.725L563.766 78.6752H556.665L555.989 79.8765H577.814L576.831 81.6565H570.869L569.609 83.6645H560.947L559.987 85.4325H552.865L552.195 86.6218H574.03L573.047 88.4018H567.083L565.825 90.4098H557.162L556.203 92.1778H549.07L548.402 93.3672H570.249L569.266 95.1472H563.302L562.042 97.1538H553.381L552.423 98.9232L534.749 98.9245C534.749 99.0418 534.737 66.3458 534.737 66.3458L585.397 66.3472Z" fill="#19255B"/>
</svg>
