<svg width="585" height="153" viewBox="0 0 585 153" fill="none" xmlns="http://www.w3.org/2000/svg">
<path d="M90.3901 141.078H86.1128V107.18H90.3901V121.88H115.786V107.18H120.063V141.078H115.786V126.159H90.3901V141.078Z" fill="#EF7911"/>
<path d="M141.725 129.778C141.725 125.884 138.544 122.702 134.649 122.702C130.755 122.702 127.575 125.884 127.575 129.778C127.575 133.673 130.755 136.854 134.649 136.854C138.544 136.854 141.725 133.673 141.725 129.778ZM145.949 129.778V141.078H141.725V138.609C139.751 140.145 137.337 141.078 134.649 141.078C128.397 141.078 123.351 136.032 123.351 129.778C123.351 123.526 128.397 118.48 134.649 118.48C140.903 118.48 145.949 123.526 145.949 129.778Z" fill="#EF7911"/>
<path d="M153.46 141.078H149.238V129.778C149.238 123.526 154.283 118.48 160.536 118.48C166.79 118.48 171.835 123.526 171.835 129.778V141.078H167.611V129.778C167.611 125.883 164.431 122.703 160.536 122.703C156.642 122.703 153.46 125.883 153.46 129.778V141.078Z" fill="#EF7911"/>
<path d="M197.72 120.564V122.758L181.54 136.854H197.72V141.078H175.123V139.048V136.854L191.248 122.758H175.123V118.481H197.72V120.564Z" fill="#EF7911"/>
<path d="M272.473 116.725C272.473 113.762 270.114 111.404 267.153 111.404H247.077V121.99H267.153C270.114 121.99 272.473 119.632 272.473 116.725ZM276.75 131.533V141.078H272.473V131.533C272.473 128.628 270.114 126.213 267.153 126.213H247.077V141.078H242.798V107.181H267.153C272.418 107.181 276.695 111.46 276.695 116.725C276.695 119.686 275.325 122.373 273.186 124.129C275.325 125.884 276.75 128.517 276.75 131.533Z" fill="#EF7911"/>
<path d="M298.413 129.778C298.413 125.884 295.23 122.702 291.337 122.702C287.442 122.702 284.261 125.884 284.261 129.778C284.261 133.673 287.442 136.854 291.337 136.854C295.23 136.854 298.413 133.673 298.413 129.778ZM302.636 129.778V141.078H298.413V138.609C296.438 140.145 294.024 141.078 291.337 141.078C285.084 141.078 280.038 136.032 280.038 129.778C280.038 123.526 285.084 118.48 291.337 118.48C297.59 118.48 302.636 123.526 302.636 129.778Z" fill="#EF7911"/>
<path d="M330.988 118.48H335.265V141.077H330.988V118.48ZM335.265 114.201H330.988V109.977H335.265V114.201Z" fill="#EF7911"/>
<path d="M342.778 141.078H338.555V129.778C338.555 123.526 343.6 118.48 349.854 118.48C356.107 118.48 361.152 123.526 361.152 129.778V141.078H356.93V129.778C356.93 125.883 353.748 122.703 349.854 122.703C345.96 122.703 342.778 125.883 342.778 129.778V141.078Z" fill="#EF7911"/>
<path d="M382.815 129.778C382.815 125.884 379.633 122.702 375.738 122.702C371.845 122.702 368.718 125.884 368.718 129.778C368.718 133.673 371.845 136.8 375.738 136.8C379.633 136.8 382.815 133.673 382.815 129.778ZM382.815 141.024V138.554C380.895 140.145 378.427 141.078 375.738 141.078C369.541 141.078 364.441 135.976 364.441 129.778C364.441 123.526 369.541 118.48 375.738 118.48C381.993 118.48 387.038 123.526 387.038 129.778V141.024V141.078C387.038 147.276 381.993 152.377 375.738 152.377C370.473 152.377 366.085 148.756 364.825 143.874H369.267C370.363 146.344 372.887 148.098 375.738 148.098C379.633 148.098 382.815 144.973 382.815 141.078V141.024Z" fill="#EF7911"/>
<path d="M411.059 136.854H423.783C430.75 136.854 436.454 131.15 436.454 124.129C436.454 117.107 430.75 111.403 423.783 111.403H411.059V136.854ZM423.783 141.078H406.78V107.181H423.783C433.108 107.181 440.732 114.75 440.732 124.129C440.732 133.509 433.108 141.078 423.783 141.078Z" fill="#EF7911"/>
<path d="M444.018 118.48H448.296V141.077H444.018V118.48ZM448.296 114.201H444.018V109.977H448.296V114.201Z" fill="#EF7911"/>
<path d="M468.973 118.48H473.526L464.53 141.078H462.226H459.978L450.927 118.48H455.481L462.226 135.374L468.973 118.48Z" fill="#EF7911"/>
<path d="M477.912 118.48H482.189V141.077H477.912V118.48ZM482.189 114.201H477.912V109.977H482.189V114.201Z" fill="#EF7911"/>
<path d="M511.365 118.48H515.642V141.077H511.365V118.48ZM515.642 114.201H511.365V109.977H515.642V114.201Z" fill="#EF7911"/>
<path d="M537.308 129.778C537.308 125.884 534.125 122.702 530.23 122.702C526.337 122.702 523.156 125.884 523.156 129.778C523.156 133.673 526.337 136.8 530.23 136.8C534.125 136.8 537.308 133.673 537.308 129.778ZM541.53 129.778C541.53 135.976 536.485 141.078 530.23 141.078C523.978 141.078 518.933 135.976 518.933 129.778C518.933 123.526 523.978 118.48 530.23 118.48C536.485 118.48 541.53 123.526 541.53 129.778Z" fill="#EF7911"/>
<path d="M549.042 141.078H544.819V129.778C544.819 123.526 549.865 118.48 556.119 118.48C562.371 118.48 567.417 123.526 567.417 129.778V141.078H563.194V129.778C563.194 125.883 560.013 122.703 556.119 122.703C552.225 122.703 549.042 125.883 549.042 129.778V141.078Z" fill="#EF7911"/>
<path d="M492.171 122.703H508.078V118.48H492.171C488.496 118.48 485.479 121.442 485.479 125.172C485.479 128.846 488.496 131.863 492.171 131.863H501.386C502.756 131.863 503.855 133.015 503.855 134.332C503.855 135.703 502.756 136.799 501.386 136.799H485.479L489.758 141.078H501.386C505.06 141.078 508.078 138.062 508.078 134.332C508.078 130.656 505.06 127.639 501.386 127.639H492.171C490.8 127.639 489.702 126.543 489.702 125.172C489.702 123.8 490.8 122.703 492.171 122.703Z" fill="#EF7911"/>
<path d="M317.223 136.854C313.328 136.854 310.202 133.673 310.202 129.778C310.202 125.883 313.328 122.758 317.223 122.758C319.527 122.758 321.611 123.855 322.871 125.555L325.882 122.546C323.819 120.078 320.718 118.481 317.223 118.481C311.024 118.481 305.923 123.581 305.923 129.778C305.923 136.033 311.024 141.078 317.223 141.078C321.994 141.078 326.054 138.17 327.698 134.057H322.871C321.611 135.758 319.527 136.854 317.223 136.854Z" fill="#EF7911"/>
<path d="M211.759 122.757C214.886 122.757 217.573 124.841 218.506 127.693H205.013C205.89 124.841 208.578 122.757 211.759 122.757ZM216.806 134.771C215.489 136.032 213.734 136.853 211.759 136.853C208.578 136.853 205.89 134.771 205.013 131.917H222.839C222.949 131.26 223.059 130.547 223.059 129.779C223.059 123.58 218.011 118.48 211.759 118.48C205.507 118.48 200.459 123.58 200.459 129.779C200.459 136.032 205.507 141.077 211.759 141.077C214.883 141.077 217.719 139.785 219.766 137.732L216.806 134.771Z" fill="#EF7911"/>
<path d="M12.7509 97.9307H0.393555V0.0227313H12.7509V42.4814H86.1029V0.0227313H98.4602V97.9307H86.1029V54.8387H12.7509V97.9307Z" fill="white"/>
<path d="M120.318 59.1162H193.67V48.9775C193.67 28.6989 177.194 12.2215 156.915 12.2215C136.637 12.2215 120.318 28.6989 120.318 48.9775V59.1162ZM120.318 97.9308H107.961V48.9775C107.961 21.8855 129.982 0.0228533 156.915 0.0228533C184.006 0.0228533 205.869 21.8855 205.869 48.9775V97.9308H193.67V71.4735H120.318V97.9308Z" fill="white"/>
<path d="M301.08 27.5889C301.08 19.0342 294.268 12.2222 285.712 12.2222H227.728V42.7982H285.712C294.268 42.7982 301.08 35.9862 301.08 27.5889ZM313.437 70.3649V97.9302H301.08V70.3649C301.08 61.9675 294.268 54.9969 285.712 54.9969H227.728V97.9302H215.37V0.0235451H285.712C300.921 0.0235451 313.277 12.3795 313.277 27.5889C313.277 36.1449 309.318 43.9075 303.138 48.9769C309.318 54.0462 313.437 61.6502 313.437 70.3649Z" fill="white"/>
<path d="M335.296 85.7315H372.049C392.171 85.7315 408.648 69.2555 408.648 48.9769C408.648 28.6982 392.171 12.2222 372.049 12.2222H335.296V85.7315ZM372.049 97.9302H322.937V0.0235451H372.049C398.984 0.0235451 421.004 21.8862 421.004 48.9769C421.004 76.0675 398.984 97.9302 372.049 97.9302Z" fill="white"/>
<path d="M469.004 65.7146H436.365V33.116H469.004V65.7146Z" fill="white"/>
<path d="M534.28 65.7146H501.641V33.116H534.28V65.7146Z" fill="white"/>
<path d="M501.641 33.1172H469.004V0.518577H501.641V33.1172Z" fill="white"/>
<path d="M501.641 98.3133H469.004V65.7159H501.641V98.3133Z" fill="white"/>
<path d="M584.932 0.543263L583.935 2.32193H577.943L576.683 4.33126H568.022L567.063 6.09926H560.011L559.326 7.3166H581.139L580.146 9.09526H574.182L572.923 11.1033H564.262L563.302 12.8726H556.2L555.524 14.0739H577.35L576.368 15.8526H570.404L569.144 17.8619H560.483L559.523 19.6299H552.4L551.731 20.8193H573.567L572.583 22.5993H566.62L565.36 24.6059H556.699L555.739 26.3753H548.606L547.938 27.5633H569.784L568.802 29.3433H562.839L561.579 31.3513H552.918L551.959 33.1193L534.284 33.1206C534.284 33.2379 534.272 0.543263 534.272 0.543263H584.932Z" fill="white"/>
<path d="M584.936 65.7146L583.939 67.4932H577.946L576.687 69.5012H568.024L567.067 71.2706H560.014L559.33 72.4866H581.143L580.15 74.2666H574.186L572.927 76.2746H564.264L563.306 78.0426H556.204L555.528 79.2452H577.354L576.371 81.0239H570.408L569.148 83.0319H560.487L559.527 84.7999H552.404L551.735 85.9906H573.57L572.587 87.7692H566.623L565.364 89.7772H556.702L555.743 91.5466H548.61L547.942 92.7346H569.788L568.806 94.5146H562.842L561.582 96.5212H552.92L551.963 98.2906L534.288 98.2919C534.288 98.4092 534.276 65.7132 534.276 65.7132L584.936 65.7146Z" fill="white"/>
</svg>
